<svg width="100" height="41" viewBox="0 0 100 41" fill="none" xmlns="http://www.w3.org/2000/svg">

<path d="M4.52586 9.07831C4.84772 7.28034 6.41173 5.97144 8.2383 5.97144H83.4916C85.8406 5.97144 87.6179 8.09533 87.2039 10.4074L83.4706 31.2646C83.1487 33.0626 81.5845 34.3714 79.7579 34.3714H4.50468C2.15582 34.3714 0.378362 32.2475 0.792248 29.9354L4.52586 9.07831Z" fill="url(#paint0_linear)"/>
<g filter="url(#filter0_d)">
<path d="M9.04028 28.9074H14.5077L15.6012 22.703H20.8071L19.7137 28.9074H25.1811L28.1763 11.9109H22.7088L21.6867 17.8062H16.457L17.5029 11.9109H12.0355L9.04028 28.9074ZM26.9617 28.9074H40.2975L41.1057 24.3908H33.2136L33.5939 22.2989H40.0598L40.7729 18.2341H34.307L34.6399 16.4274H42.5082L43.2927 11.9109H29.9569L26.9617 28.9074ZM41.9118 28.9074H47.403L48.3538 23.6064H49.4473C49.6612 23.6064 49.8514 23.7966 49.9702 24.1056L51.8719 28.9074H58.0287V28.8599L55.1049 22.3703C57.0779 21.776 59.6452 20.3497 59.6452 16.6176C59.6452 13.4322 57.173 11.9109 53.536 11.9109H44.9069L41.9118 28.9074ZM49.0669 19.3751L49.5899 16.3086H52.4187C53.4171 16.3086 54.0589 16.7602 54.0589 17.616C54.0589 18.7808 53.1081 19.3751 51.6342 19.3751H49.0669ZM67.7022 29.3591C73.7164 29.3591 78.1617 24.795 78.1617 18.971C78.1617 14.0503 74.7861 11.4592 70.2695 11.4592C64.2554 11.4592 59.8339 16.0946 59.8339 21.8711C59.8339 26.7918 63.2094 29.3591 67.7022 29.3591ZM68.4153 24.5097C66.5612 24.5097 65.5391 23.0835 65.5391 21.1342C65.5391 18.4242 67.4408 16.3086 69.6515 16.3086C71.4819 16.3086 72.4565 17.7586 72.4565 19.7079C72.4565 22.394 70.6499 24.5097 68.4153 24.5097Z" fill="white"/>
</g>
<defs>
<filter id="filter0_d" x="8.74885" y="11.1678" width="69.85" height="18.6285" filterUnits="userSpaceOnUse" color-interpolation-filters="sRGB">
<feFlood flood-opacity="0" result="BackgroundImageFix"/>
<feColorMatrix in="SourceAlpha" type="matrix" values="0 0 0 0 0 0 0 0 0 0 0 0 0 0 0 0 0 0 127 0" result="hardAlpha"/>
<feOffset dx="0.0728571" dy="0.0728571"/>
<feGaussianBlur stdDeviation="0.182143"/>
<feComposite in2="hardAlpha" operator="out"/>
<feColorMatrix type="matrix" values="0 0 0 0 0 0 0 0 0 0 0 0 0 0 0 0 0 0 0.08 0"/>
<feBlend mode="normal" in2="BackgroundImageFix" result="effect1_dropShadow"/>
<feBlend mode="normal" in="SourceGraphic" in2="effect1_dropShadow" result="shape"/>
</filter>
<linearGradient id="paint0_linear" x1="-14.5001" y1="-19" x2="108.5" y2="73.5" gradientUnits="userSpaceOnUse">
<stop stop-color="#0F0F0F"/>
<stop offset="0.402453" stop-color="#A97EFF"/>
<stop offset="0.705877" stop-color="#FFB571"/>
<stop offset="1" stop-color="#9EFFAD"/>
</linearGradient>
</defs>
</svg>
