<?xml version="1.0" encoding="UTF-8" standalone="no"?>
<!DOCTYPE svg PUBLIC "-//W3C//DTD SVG 1.1//EN" "http://www.w3.org/Graphics/SVG/1.1/DTD/svg11.dtd">
<svg width="100%" height="100%" viewBox="0 0 120 90" version="1.1" xmlns="http://www.w3.org/2000/svg" xmlns:xlink="http://www.w3.org/1999/xlink" xml:space="preserve" xmlns:serif="http://www.serif.com/" style="fill-rule:evenodd;clip-rule:evenodd;stroke-linejoin:round;stroke-miterlimit:2;">
    <g transform="matrix(7.5,0,0,7.5,1.63702e-08,-15)">
        <path d="M0,3.5C-0,2.677 0.677,2 1.5,2L10.5,2C11.323,2 12,2.677 12,3.5L12,5L13.02,5C13.475,5 13.906,5.208 14.19,5.563L15.671,7.413C15.884,7.679 16,8.01 16,8.351L16,10.5C16,11.323 15.323,12 14.5,12L14,12C14,13.097 13.097,14 12,14C10.903,14 10,13.097 10,12L5,12C5,12.001 5,12.003 5,12.004C5,13.101 4.097,14.004 3,14.004C1.903,14.004 1,13.101 1,12.004C1,11.975 1.001,11.945 1.002,11.915C0.403,11.704 -0,11.135 0,10.5L0,3.5ZM1.294,10.956C1.657,10.362 2.304,9.999 3,9.999C3.714,9.999 4.376,10.381 4.732,11L10.268,11C10.444,10.696 10.696,10.444 11,10.268L11,3.5C11,3.226 10.774,3 10.5,3L1.5,3C1.226,3 1,3.226 1,3.5L1,10.5C1,10.696 1.115,10.875 1.294,10.956ZM12,10C12.714,10 13.375,10.382 13.732,11L14.5,11C14.774,11 15,10.774 15,10.5L15,8.35C15,8.237 14.961,8.126 14.89,8.038L13.41,6.188C13.315,6.069 13.172,6 13.02,6L12,6L12,10ZM3,11C2.451,11 2,11.451 2,12C2,12.549 2.451,13 3,13C3.549,13 4,12.549 4,12C4,11.451 3.549,11 3,11ZM12,11C11.451,11 11,11.451 11,12C11,12.549 11.451,13 12,13C12.549,13 13,12.549 13,12C13,11.451 12.549,11 12,11Z" style="fill:rgb(2,75,120);fill-rule:nonzero;"/>
    </g>
</svg>
