<?xml version="1.0" encoding="utf-8"?>
<!-- Generator: Adobe Illustrator 23.0.1, SVG Export Plug-In . SVG Version: 6.00 Build 0)  -->
<svg version="1.1" id="Untitled-1.fw-Page_x25_201" xmlns="http://www.w3.org/2000/svg" xmlns:xlink="http://www.w3.org/1999/xlink"
	 x="0px" y="0px" viewBox="0 0 100 100" style="enable-background:new 0 0 100 100;" xml:space="preserve">
<style type="text/css">
	.st0{fill:none;enable-background:new    ;}
	.st1{fill:#DE525B;enable-background:new    ;}
	.st2{fill:#231F20;}
</style>
<path class="st0" d="M972.5-490.5"/>
<path class="st1" d="M972.5-490.5"/>
<path class="st2" d="M87.5,62.6L100,51.4v22.4v22.4L87.5,85L75,73.8L87.5,62.6z M75,71L75,71l12.5-11.2L100,48.6L87.5,37.4L75,26.2
	l0,0L62.5,37.4L50,48.6h0v0l0,0l0,0v0h0L37.5,37.4L25,26.2l0,0L12.5,37.4L0,48.6l12.5,11.2L25,71v0v0l12.5,11.2L50,93.3V71V48.6l0,0
	l0,0V71v22.4l12.5-11.2L75,71L75,71z M0,51.4v22.4v22.4L12.5,85L25,73.8L12.5,62.6L0,51.4z M50,45.8V23.4V3.8L26.5,24.7l11,9.8
	L50,45.8z M73.4,24.8L50,3.8v19.6v22.4l12.5-11.2L73.4,24.8z"/>
</svg>
