<svg width="85" height="27" viewBox="0 0 85 27" fill="none" xmlns="http://www.w3.org/2000/svg">
<path d="M2.52238 2.01681C2.72802 0.849668 3.72727 0 4.89428 0H54.5626C56.0633 0 57.2654 1.39912 57.001 2.9L54.5152 16.675C54.3096 17.8422 53.3001 18.6918 52.1331 18.6918H2.47496C0.974264 18.6918 -0.227766 17.3473 0.0366679 15.8464L2.52238 2.01681Z" fill="url(#paint0_linear_2486_2934)"/>
<g filter="url(#filter0_d_2486_2934)">
<path d="M5.47754 15.0527H9.08107L9.80178 10.9634H13.233L12.5123 15.0527H16.1158L18.0899 3.85042H14.4864L13.8127 7.73597H10.3658L11.0552 3.85042H7.45165L5.47754 15.0527ZM17.2894 15.0527H26.0789L26.6116 12.0758H21.41L21.6606 10.6971H25.9222L26.3922 8.01798H22.1306L22.35 6.82725H27.536L28.053 3.85042H19.2635L17.2894 15.0527ZM27.1428 15.0527H30.762L31.3887 11.5588H32.1094C32.2504 11.5588 32.3758 11.6842 32.4541 11.8878L33.7075 15.0527H37.7654V15.0214L35.8383 10.7441C37.1387 10.3524 38.8308 9.41238 38.8308 6.95259C38.8308 4.85314 37.2014 3.85042 34.8042 3.85042H29.1169L27.1428 15.0527ZM31.8587 8.77005L32.2034 6.74891H34.0678C34.7259 6.74891 35.1489 7.04659 35.1489 7.61063C35.1489 8.37833 34.5222 8.77005 33.5508 8.77005H31.8587ZM44.1411 15.3504C48.105 15.3504 51.0348 12.3422 51.0348 8.50367C51.0348 5.2605 48.81 3.55273 45.8332 3.55273C41.8693 3.55273 38.9552 6.60791 38.9552 10.4151C38.9552 13.6583 41.1799 15.3504 44.1411 15.3504ZM44.6111 12.1542C43.389 12.1542 42.7154 11.2142 42.7154 9.92945C42.7154 8.14332 43.9688 6.74891 45.4258 6.74891C46.6322 6.74891 47.2746 7.70463 47.2746 8.98938C47.2746 10.7598 46.0839 12.1542 44.6111 12.1542Z" fill="white"/>
</g>
<path d="M39.8944 17.6103C40.0066 16.9737 40.5516 16.5103 41.1882 16.5103H62.2074C63.0259 16.5103 63.6816 17.2734 63.5374 18.0921L62.1815 25.6057C62.0694 26.2424 61.5187 26.7058 60.8822 26.7058H39.8685C39.05 26.7058 38.3943 25.9724 38.5386 25.1537L39.8944 17.6103Z" fill="black"/>
<path d="M42.3623 24.7271H43.9777L44.2741 22.9606H45.1632C46.5345 22.9606 47.5689 22.1703 47.7781 20.8802C47.9873 19.6134 47.2435 18.7767 45.9186 18.7767H43.3502L42.3623 24.7271ZM44.4833 21.7054L44.7564 20.0667H45.3259C45.8954 20.0667 46.1743 20.3689 46.0929 20.8802C46.0116 21.3916 45.6281 21.7054 45.047 21.7054H44.4833ZM47.7316 24.7271H49.3471L49.6754 22.763H50.2332L50.9509 24.7271H52.7058L51.8661 22.5073C52.5489 22.2022 53.0254 21.624 53.159 20.7989C53.3682 19.5321 52.6128 18.7767 51.2879 18.7767H48.7195L47.7316 24.7271ZM49.8846 21.5078L50.1257 20.0667H50.6952C51.2531 20.0667 51.5552 20.2875 51.4739 20.7989C51.3925 21.3102 51.0206 21.5078 50.4511 21.5078H49.8846ZM59.5177 21.8565C59.8547 19.8226 58.7274 18.6953 57.0655 18.6953C55.4848 18.6953 54.0786 19.7297 53.7648 21.6705C53.4278 23.6927 54.5551 24.8084 56.2287 24.8084C57.7976 24.8084 59.1922 23.7974 59.5177 21.8565ZM57.8906 21.6705C57.7046 22.7746 57.1352 23.4022 56.2868 23.4022C55.543 23.4022 55.206 22.8908 55.3919 21.8565C55.5662 20.7524 56.1473 20.1016 57.0073 20.1016C57.7628 20.1016 58.0533 20.6478 57.8906 21.6705Z" fill="white"/>
<path d="M63.05 6.11828L62.2591 10.9046C62.1636 11.4365 61.8909 11.7228 61.4682 11.7228C61.0455 11.7228 60.8682 11.4501 60.9364 10.9183H59.0409C58.7682 12.5274 59.7636 13.1956 61.1 13.1956C62.6545 13.1956 63.8955 12.2683 64.1273 10.9046L64.9182 6.11828H63.05ZM66.8256 12.7865H68.3528L68.6426 11.0274H70.3983L70.6574 9.5001H68.8949L69.1847 7.74101H67.6574L67.3676 9.5001H65.6119L65.3528 11.0274H67.1153L66.8256 12.7865ZM74.1364 13.1956C75.7864 13.1956 77.0989 12.3365 77.2864 11.191C77.433 10.2978 76.8295 9.62964 75.8409 9.51373V9.45919C76.7477 9.38078 77.3955 8.97169 77.5318 8.1501C77.7193 7.00464 76.7784 6.02282 75.1864 6.02282C73.6591 6.02282 72.3977 6.92623 72.1864 8.20464H73.9864C74.0477 7.78192 74.5659 7.48192 75.0909 7.48192C75.5716 7.48192 75.7795 7.72055 75.7182 8.08192C75.6398 8.55237 75.1659 8.9001 74.5864 8.9001H73.9182L73.7 10.2092H74.45C75.0261 10.2092 75.4216 10.4035 75.35 10.8365C75.2818 11.2592 74.8318 11.6683 74.2455 11.6683C73.7511 11.6683 73.4034 11.3785 73.4818 10.9728H71.6C71.375 12.2751 72.4284 13.1956 74.1364 13.1956ZM80.819 13.291C82.7145 13.291 84.119 11.9274 84.5009 9.62282C84.8827 7.31487 83.9145 6.02282 82.019 6.02282C80.1236 6.02282 78.7327 7.31828 78.3372 9.62282C77.9418 11.924 78.9099 13.291 80.819 13.291ZM81.0781 11.7501C80.4236 11.7501 80.0554 11.0956 80.3009 9.62282C80.5395 8.19101 81.119 7.5501 81.7736 7.5501C82.4281 7.5501 82.7827 8.19101 82.5372 9.62282C82.2849 11.0921 81.7327 11.7501 81.0781 11.7501Z" fill="black"/>
<defs>
<filter id="filter0_d_2486_2934" x="5.18611" y="3.26131" width="46.2862" height="12.5264" filterUnits="userSpaceOnUse" color-interpolation-filters="sRGB">
<feFlood flood-opacity="0" result="BackgroundImageFix"/>
<feColorMatrix in="SourceAlpha" type="matrix" values="0 0 0 0 0 0 0 0 0 0 0 0 0 0 0 0 0 0 127 0" result="hardAlpha"/>
<feOffset dx="0.0728571" dy="0.0728571"/>
<feGaussianBlur stdDeviation="0.182143"/>
<feComposite in2="hardAlpha" operator="out"/>
<feColorMatrix type="matrix" values="0 0 0 0 0 0 0 0 0 0 0 0 0 0 0 0 0 0 0.08 0"/>
<feBlend mode="normal" in2="BackgroundImageFix" result="effect1_dropShadow_2486_2934"/>
<feBlend mode="normal" in="SourceGraphic" in2="effect1_dropShadow_2486_2934" result="shape"/>
</filter>
<linearGradient id="paint0_linear_2486_2934" x1="-9.59188" y1="-16.2099" x2="69.8922" y2="42.6218" gradientUnits="userSpaceOnUse">
<stop stop-color="#0F0F0F"/>
<stop offset="0.402453" stop-color="#A97EFF"/>
<stop offset="0.705877" stop-color="#FFB571"/>
<stop offset="1" stop-color="#9EFFAD"/>
</linearGradient>
</defs>
</svg>
