<svg width="40" height="30" viewBox="0 0 40 30" fill="none" xmlns="http://www.w3.org/2000/svg">
<rect x="0.588235" y="1.47056" width="38.8235" height="27.0588" rx="4.11765" fill="white" stroke="#D9D9D9" stroke-width="1.17647"/>
<path fill-rule="evenodd" clip-rule="evenodd" d="M12.6473 19.5013H10.224L8.40692 12.4244C8.32067 12.0989 8.13754 11.8111 7.86816 11.6755C7.1959 11.3346 6.45511 11.0633 5.64697 10.9265V10.654H9.5506C10.0894 10.654 10.4934 11.0633 10.5608 11.5386L11.5036 16.6434L13.9256 10.654H16.2815L12.6473 19.5013ZM17.6285 19.5013H15.3399L17.2244 10.654H19.5129L17.6285 19.5013ZM22.4738 13.105C22.5411 12.6284 22.9452 12.356 23.4166 12.356C24.1574 12.2876 24.9643 12.4244 25.6378 12.7641L26.0418 10.8592C25.3684 10.5868 24.6276 10.45 23.9553 10.45C21.7341 10.45 20.1179 11.6754 20.1179 13.3762C20.1179 14.6701 21.2627 15.3495 22.0709 15.7588C22.9452 16.1669 23.2819 16.4393 23.2145 16.8474C23.2145 17.4596 22.5411 17.732 21.8688 17.732C21.0607 17.732 20.2526 17.528 19.513 17.1871L19.1089 19.0931C19.917 19.4328 20.7913 19.5697 21.5995 19.5697C24.09 19.6369 25.6378 18.4126 25.6378 16.575C25.6378 14.2608 22.4738 14.1252 22.4738 13.105V13.105ZM33.6469 19.5013L31.8298 10.654H29.878C29.4739 10.654 29.0698 10.9265 28.9352 11.3346L25.5703 19.5013H27.9262L28.3964 18.2086H31.291L31.5604 19.5013H33.6469ZM30.2148 13.0365L30.8871 16.3709H29.0026L30.2148 13.0365Z" fill="#172B85"/>
</svg>
